<svg version="1.1" id="Layer_1" xmlns="http://www.w3.org/2000/svg" xmlns:xlink="http://www.w3.org/1999/xlink" x="0px" y="0px"
	 width="100%" viewBox="0 0 500 500" enable-background="new 0 0 500 500" xml:space="preserve">
<path fill="#000000" opacity="1.000000" stroke="none" 
	d="
M256.000000,501.000000 
	C170.666687,501.000000 85.833374,501.000000 1.000046,501.000000 
	C1.000030,334.333405 1.000030,167.666794 1.000015,1.000135 
	C167.666565,1.000090 334.333130,1.000090 500.999756,1.000045 
	C500.999847,167.666519 500.999847,334.333038 500.999939,500.999786 
	C419.500000,501.000000 338.000000,501.000000 256.000000,501.000000 
M335.791290,216.791565 
	C337.844727,216.791565 339.898163,216.791565 342.101929,216.791565 
	C340.447784,211.532074 339.602875,210.793472 334.240173,209.983963 
	C330.164490,210.296875 327.978363,212.482529 327.221436,216.642715 
	C330.131165,216.642715 332.551178,216.642715 335.791290,216.791565 
M328.632019,225.523331 
	C330.756683,225.456558 332.881348,225.389801 335.831726,225.570099 
	C337.905121,225.570099 339.978516,225.570099 342.184387,225.570099 
	C342.184387,222.727234 342.184387,220.501648 342.184387,218.198807 
	C339.576447,218.198807 337.285431,218.198807 334.137970,218.003616 
	C332.094330,218.062973 330.050690,218.122314 327.363739,218.309280 
	C327.550995,220.604630 327.738220,222.899963 328.632019,225.523331 
M217.144775,168.451782 
	C205.621094,166.262299 194.097412,164.072830 181.088181,161.601105 
	C199.796631,184.341034 217.562866,205.935715 235.576645,227.831284 
	C246.081711,216.896378 255.978622,206.364273 266.196472,196.153320 
	C268.233704,194.117447 271.365967,192.838776 274.224915,192.039520 
	C279.067566,190.685684 284.094757,189.992065 289.414001,188.948380 
	C285.667847,183.828918 281.820770,180.437012 275.750580,179.857834 
	C270.983551,179.402985 266.332550,177.839539 261.578339,177.101669 
	C258.813141,176.672516 258.006927,175.406525 258.129639,172.778625 
	C258.305756,169.006454 258.174561,165.219955 258.174561,161.336990 
	C255.225754,161.336990 252.838272,161.336990 249.797546,161.336990 
	C249.797546,168.805450 249.797546,175.975784 249.797546,183.210052 
	C243.417740,182.295425 239.313538,180.052826 241.086334,173.057831 
	C232.972351,171.520660 225.470520,170.099472 217.144775,168.451782 
M328.189148,199.709442 
	C331.725067,195.376328 335.260986,191.043213 339.425934,185.939270 
	C336.897095,186.091110 335.291168,186.014496 333.755463,186.306839 
	C320.220795,188.883453 306.667542,191.376968 293.182465,194.195053 
	C282.202362,196.489655 270.180176,196.483475 263.018066,207.700897 
	C261.089691,210.721191 258.013947,213.006363 255.478912,215.642456 
	C250.231079,221.099472 244.992630,226.565521 239.148956,232.654495 
	C240.663528,232.778290 241.256485,232.865768 241.849960,232.869583 
	C260.311279,232.988281 278.773132,233.185440 297.233276,233.082687 
	C299.175354,233.071869 301.665863,231.761551 302.953796,230.247543 
	C311.355896,220.370773 319.496246,210.271332 328.189148,199.709442 
M144.201340,206.671906 
	C136.907288,215.654266 129.613235,224.636612 121.678490,234.407944 
	C129.876572,234.978897 137.058197,235.479065 145.175034,236.044357 
	C141.562943,228.299225 146.360229,224.005798 150.318176,219.302734 
	C158.672546,209.375595 166.932968,199.369232 175.205368,189.373398 
	C177.700943,186.357895 180.108994,183.269958 182.116394,180.765152 
	C178.822769,177.375793 175.993637,174.464417 172.990097,171.373566 
	C163.564651,182.945648 154.118378,194.543289 144.201340,206.671906 
M170.683228,292.745239 
	C172.433533,292.822784 174.183838,292.900330 176.341110,292.995911 
	C176.341110,288.449341 175.985962,284.423767 176.497910,280.511688 
	C176.737167,278.683380 178.653015,277.074463 179.808975,275.366119 
	C180.935379,277.081757 182.810150,278.705231 183.034988,280.531860 
	C183.528854,284.544067 183.188171,288.658966 183.188171,293.069183 
	C185.813660,292.944244 187.544144,292.861908 189.713333,292.758698 
	C189.713333,288.315704 189.356430,284.298889 189.872208,280.397430 
	C190.110382,278.595947 192.053223,277.019806 193.223145,275.341461 
	C194.270050,276.975647 196.031647,278.531647 196.220764,280.259705 
	C196.666855,284.335938 196.363876,288.494202 196.363876,292.777283 
	C198.770645,292.777283 200.535522,292.777283 202.745010,292.777283 
	C202.745010,287.096771 203.096909,281.619843 202.641281,276.210938 
	C202.225677,271.277191 197.830368,268.661041 193.174133,270.144470 
	C191.507996,270.675262 190.063782,271.902618 188.471634,272.839508 
	C183.148422,266.348999 176.306854,273.199982 170.156509,269.527527 
	C170.156509,277.780548 170.156509,284.890289 170.683228,292.745239 
M238.017487,268.533203 
	C238.017487,266.428833 238.017487,264.324493 238.017487,262.201416 
	C235.604477,262.201416 233.846680,262.201416 232.018478,262.201416 
	C232.018478,272.549652 232.018478,282.610229 232.018478,292.732483 
	C234.072311,292.732483 235.817017,292.732483 238.117172,292.732483 
	C238.117172,288.406281 238.117172,284.342285 238.117172,280.383362 
	C241.750992,280.383362 244.806198,280.383362 248.278915,280.383362 
	C248.278915,284.675629 248.278915,288.607361 248.278915,292.770508 
	C250.465424,292.770508 252.227173,292.770508 254.297760,292.770508 
	C254.297760,282.544952 254.297760,272.484253 254.297760,262.325134 
	C252.168427,262.325134 250.312469,262.325134 248.012054,262.325134 
	C248.012054,266.487305 248.012054,270.246277 248.012054,274.233643 
	C244.516388,274.233643 241.483154,274.233643 238.227753,274.233643 
	C238.147858,272.432922 238.082733,270.964722 238.017487,268.533203 
M119.808876,293.009399 
	C122.951187,293.504517 124.393913,292.421783 124.073067,289.002045 
	C123.801346,286.105865 124.017036,283.164001 124.017036,280.408203 
	C127.796051,280.408203 130.855988,280.408203 134.328568,280.408203 
	C134.328568,284.731201 134.328568,288.666565 134.328568,292.775238 
	C136.512970,292.775238 138.271774,292.775238 140.296173,292.775238 
	C140.296173,282.470734 140.296173,272.407867 140.296173,262.164001 
	C138.223831,262.164001 136.462143,262.164001 134.095673,262.164001 
	C134.095673,266.299164 134.095673,270.198792 134.095673,274.183685 
	C130.446381,274.183685 127.413124,274.183685 123.810486,274.183685 
	C123.810486,269.916779 123.810486,266.029083 123.810486,261.884552 
	C121.480629,261.988129 119.746552,262.065216 117.761002,262.153503 
	C117.761002,272.099457 117.738121,281.562286 117.811493,291.024353 
	C117.816483,291.668304 118.544312,292.306702 119.808876,293.009399 
M342.298401,194.731125 
	C341.015320,195.443771 339.732239,196.156433 338.345306,196.926788 
	C346.413300,206.461563 353.354645,214.701309 360.340485,222.903137 
	C363.206329,226.267838 366.717285,229.323135 364.385773,234.985214 
	C369.697693,234.564224 374.225006,234.205414 379.715332,233.770279 
	C368.098999,219.408463 356.994690,205.679733 345.775330,191.808701 
	C344.556305,192.814468 343.676666,193.540207 342.298401,194.731125 
M308.141998,270.579102 
	C307.474091,270.084503 306.284149,269.641022 306.229828,269.086334 
	C306.009552,266.837097 306.138306,264.553680 306.138306,262.260895 
	C303.745270,262.260895 302.019501,262.260895 300.295715,262.260895 
	C300.295715,272.661774 300.295715,282.728394 300.295715,292.578339 
	C304.459991,292.816315 308.250519,293.206116 312.036438,293.165588 
	C313.592316,293.148956 315.339813,292.505951 316.651184,291.627106 
	C320.692200,288.918945 322.132538,281.811188 320.038879,276.086609 
	C318.245178,271.182220 315.190369,269.567322 308.141998,270.579102 
M278.439545,278.210052 
	C277.508087,272.524872 274.853363,270.143738 269.184753,269.909088 
	C263.331085,269.666809 260.376343,271.535767 258.806091,277.453186 
	C261.677948,276.857513 264.136841,276.606049 266.407013,275.813873 
	C269.533081,274.723053 271.199615,275.500122 272.351196,278.959320 
	C268.966248,279.341492 266.316193,279.444244 263.755371,279.976288 
	C260.011230,280.754181 257.965088,283.256470 258.163361,287.102661 
	C258.368347,291.079437 260.874756,293.166260 264.705017,293.177856 
	C269.139282,293.191193 273.574890,292.768982 278.451691,292.512634 
	C278.451691,288.021362 278.451691,283.551605 278.439545,278.210052 
M223.955704,272.410675 
	C218.286591,268.514801 211.957275,269.140961 208.524384,273.937256 
	C205.141708,278.663391 206.331757,287.845642 210.770798,291.270355 
	C215.388367,294.832794 222.258957,293.757935 226.029327,288.883301 
	C223.748856,286.082367 223.754242,286.095978 220.768082,287.278320 
	C217.280060,288.659332 214.675156,288.033508 212.463638,283.594543 
	C218.019501,283.594543 222.450317,283.594543 228.348175,283.594543 
	C226.845474,279.491669 225.653961,276.238464 223.955704,272.410675 
M349.907806,289.168823 
	C351.863556,290.497894 353.720306,292.738831 355.795898,292.964172 
	C359.979828,293.418396 364.282745,292.776001 368.538422,292.585938 
	C368.538422,285.052795 368.538422,277.704376 368.538422,270.281921 
	C366.482910,270.281921 364.859314,270.281921 362.640594,270.281921 
	C362.640594,274.599152 363.001373,278.760712 362.476440,282.807343 
	C362.241608,284.617737 360.229736,286.197601 359.024323,287.882080 
	C357.804840,286.225494 355.764069,284.675629 355.532166,282.890717 
	C355.004730,278.831482 355.365875,274.656738 355.365875,270.365601 
	C353.082947,270.365601 351.342285,270.365601 349.592560,270.365601 
	C349.592560,276.577911 349.592560,282.496429 349.907806,289.168823 
M166.012009,281.492828 
	C166.011246,276.180756 164.102982,272.002350 158.756927,270.237274 
	C154.223755,268.740631 149.195206,270.481079 146.729721,274.080566 
	C144.070648,277.962646 144.122849,285.456848 146.892303,289.238464 
	C149.704910,293.078979 153.665512,293.823303 158.022934,293.020599 
	C162.686005,292.161591 165.099854,288.809875 166.012009,281.492828 
M344.173920,275.759125 
	C340.673309,270.159119 335.743378,268.349762 330.255096,270.650757 
	C325.306274,272.725586 322.816895,278.766785 324.317505,285.060150 
	C325.661713,290.697662 329.811737,293.680176 335.699432,293.240082 
	C340.872742,292.853394 344.546417,289.339508 344.985931,283.905975 
	C345.183228,281.466766 344.691193,278.971802 344.173920,275.759125 
M163.586243,332.999329 
	C164.373657,329.902283 165.161072,326.805206 166.006805,323.478729 
	C173.108734,322.112396 169.669968,334.139954 177.502335,332.711304 
	C175.948410,329.304749 174.595093,326.337952 173.241776,323.371155 
	C173.818344,323.418030 174.394913,323.464874 174.971481,323.511749 
	C175.599106,320.423676 177.168610,317.156250 176.623077,314.291595 
	C175.891708,310.451141 171.958344,310.127930 168.487381,310.157928 
	C167.655258,310.165131 166.809677,310.253845 165.993118,310.140533 
	C162.401062,309.642090 160.826004,310.860901 161.095932,314.768036 
	C161.416367,319.406250 161.055374,324.088074 161.241470,328.740967 
	C161.298599,330.169373 162.182861,331.564758 163.586243,332.999329 
M237.319260,310.560242 
	C236.971024,317.929596 236.622787,325.298950 236.276657,332.623596 
	C242.066620,332.623596 246.927200,332.623596 252.838745,332.623596 
	C249.296478,327.456818 244.168930,331.519653 240.769836,328.810364 
	C240.769836,327.251068 240.769836,325.513855 240.769836,323.192108 
	C242.719711,323.192108 244.383743,323.396454 245.958084,323.109222 
	C246.793869,322.956726 247.474045,321.951477 248.224487,321.331146 
	C247.491089,320.878662 246.792007,320.123047 246.017303,320.035339 
	C244.279465,319.838593 242.504059,319.973724 240.686401,319.973724 
	C240.686401,317.622955 240.686401,316.014160 240.686401,313.756195 
	C243.714920,313.756195 246.506195,313.884399 249.273514,313.683228 
	C250.182175,313.617218 251.028763,312.697205 251.903732,312.167694 
	C250.981644,311.518494 250.087479,310.362640 249.132492,310.309998 
	C245.483932,310.108856 241.815781,310.262848 237.319260,310.560242 
M376.610718,293.010101 
	C377.713501,292.029663 379.373199,291.237030 379.782715,290.022797 
	C380.334320,288.387268 380.105408,286.404877 379.889893,284.609985 
	C379.260071,279.363617 380.544006,275.721680 386.849457,276.131012 
	C387.138794,274.056091 387.377899,272.341583 387.604462,270.716827 
	C382.723633,270.716827 378.368073,270.716827 373.541931,270.716827 
	C373.541931,277.267731 373.461700,283.867615 373.639130,290.460571 
	C373.662415,291.325775 375.005432,292.155487 376.610718,293.010101 
M294.965759,317.267548 
	C294.173889,318.291931 293.382050,319.316284 292.590179,320.340668 
	C292.876221,320.709564 293.162292,321.078461 293.448334,321.447357 
	C295.061646,320.930756 296.659180,320.080383 298.293304,320.002930 
	C299.604645,319.940735 300.960419,320.815735 302.296478,321.274841 
	C302.164856,321.750000 302.033203,322.225189 301.901581,322.700348 
	C300.283569,322.830444 298.639191,322.820740 297.053192,323.120361 
	C293.940033,323.708374 291.757477,325.388123 292.081299,328.860962 
	C292.419250,332.485626 295.023926,333.357941 298.178284,333.185303 
	C300.740021,333.045166 303.296875,332.816193 306.170959,332.603271 
	C306.170959,329.894409 306.185364,327.244110 306.168243,324.594055 
	C306.120087,317.149475 303.115234,314.964050 294.965759,317.267548 
M216.192032,333.012115 
	C216.845718,332.297821 217.994492,331.627930 218.063248,330.861206 
	C218.299728,328.224152 218.066330,325.549164 218.183731,322.896240 
	C218.341476,319.331757 216.676041,317.143036 213.300201,316.431458 
	C209.644501,315.660858 206.447418,316.275513 204.797394,320.096069 
	C207.271973,323.900818 212.158264,316.083862 214.203262,322.573669 
	C213.001129,322.732513 212.077011,322.932648 211.147202,322.963898 
	C207.297180,323.093231 204.044785,324.074188 204.077026,328.744354 
	C204.101395,332.276337 207.003540,333.675476 212.024490,332.950867 
	C213.108429,332.794464 214.236420,332.943359 216.192032,333.012115 
M296.091156,270.275635 
	C291.862732,270.275635 287.634338,270.275635 283.173279,270.275635 
	C283.173279,277.899567 283.173279,285.257141 283.173279,292.696136 
	C285.203278,292.696136 286.920624,292.696136 288.321533,292.696136 
	C291.466248,286.979462 283.705811,276.943146 296.243103,275.850677 
	C296.387787,274.063660 296.518341,272.451202 296.091156,270.275635 
M340.759827,328.624176 
	C339.589417,328.993866 338.440002,329.464752 337.244385,329.712982 
	C334.463104,330.290405 332.451019,329.694031 332.302917,325.843628 
	C335.847778,325.843628 339.115204,325.843628 342.728088,325.843628 
	C342.295044,321.678467 342.081787,317.511536 337.653809,316.760895 
	C335.159393,316.338043 330.642639,317.371094 329.956726,318.987396 
	C328.628235,322.117920 328.564423,326.368317 329.572449,329.666901 
	C330.094604,331.375641 333.993164,332.785645 336.437531,332.908020 
	C337.984741,332.985443 339.663208,330.440491 340.759827,328.624176 
M190.000702,326.054932 
	C192.617050,326.054932 195.233398,326.054932 198.057129,326.054932 
	C198.385834,321.725861 197.857697,317.751373 193.634583,316.887177 
	C191.078873,316.364197 186.184937,317.555054 185.594925,319.166840 
	C184.378265,322.490479 184.423904,326.994324 185.781021,330.249268 
	C186.495819,331.963654 191.031433,332.418182 193.916382,332.713837 
	C194.927979,332.817535 196.162415,330.746765 197.295105,329.668945 
	C195.963013,329.657410 194.618774,329.753998 193.301971,329.606201 
	C191.756104,329.432648 190.216171,329.103943 188.736618,328.641266 
	C188.622101,328.605469 189.003983,326.982239 190.000702,326.054932 
M187.198898,216.600784 
	C187.198898,214.821716 187.198898,213.042664 187.198898,211.136322 
	C183.177170,211.136322 179.633850,211.136322 176.015717,211.136322 
	C176.015717,215.335983 176.015717,219.222702 176.015717,223.240234 
	C179.862762,223.240234 183.376663,223.240234 187.198715,223.240234 
	C187.198715,221.063614 187.198715,219.261581 187.198898,216.600784 
M201.443054,220.962692 
	C201.443054,217.694412 201.443054,214.426132 201.443054,211.051682 
	C197.343216,211.051682 193.894455,211.051682 190.263809,211.051682 
	C190.263809,215.190582 190.263809,219.104065 190.263809,224.385956 
	C194.320190,223.449417 197.861069,222.631897 201.443054,220.962692 
M266.142853,329.862122 
	C263.504913,329.256256 260.866974,328.650421 257.837036,327.954529 
	C258.801331,333.014221 262.210724,333.626282 265.519623,332.962097 
	C267.567169,332.551086 269.283600,330.490540 271.148651,329.170471 
	C269.814270,327.363892 268.731750,325.261810 267.066986,323.842865 
	C265.699921,322.677704 263.640869,322.324371 261.888550,321.611206 
	C262.043274,320.984558 262.197968,320.357910 262.352661,319.731293 
	C265.130646,320.301208 267.908630,320.871094 271.262238,321.559113 
	C270.007782,316.794739 266.831146,315.689484 263.499115,316.423248 
	C261.472839,316.869446 258.772552,318.865906 258.281128,320.681824 
	C257.346283,324.136108 260.629333,325.137329 263.319305,326.293335 
	C264.672455,326.874847 265.650848,328.328369 266.142853,329.862122 
M314.493195,327.101898 
	C315.141663,332.995605 316.847656,334.101746 321.956146,331.695251 
	C321.705872,331.137543 321.605225,330.391052 321.179230,330.045166 
	C316.952057,326.612701 316.921997,322.875854 320.950226,319.389984 
	C321.405670,318.995880 321.198822,317.291901 320.739868,316.533936 
	C320.249481,315.724121 319.002655,315.413971 318.257568,314.705353 
	C317.462280,313.949005 316.867554,312.981750 316.185272,312.106567 
	C315.603424,312.944275 315.027618,313.786316 314.438202,314.618683 
	C313.629059,315.761414 312.809540,316.896820 312.856934,316.830627 
	C313.544800,320.791473 314.017273,323.512085 314.493195,327.101898 
M284.834625,333.001221 
	C284.964661,331.909241 285.442200,330.710815 285.147522,329.748932 
	C284.639374,328.090179 282.860504,326.482452 283.037506,325.026276 
	C283.353760,322.424591 284.728302,319.951569 285.683014,317.363373 
	C284.687347,316.037781 283.654907,313.217102 281.798004,312.483521 
	C277.563385,310.810577 279.798584,316.907745 276.885132,317.415314 
	C276.797089,317.430634 276.810272,318.027130 276.776276,318.352661 
	C278.251190,321.317902 278.886780,324.338776 278.915222,327.365356 
	C278.949463,331.008209 280.161438,333.132324 284.834625,333.001221 
M185.898987,208.837906 
	C186.497726,205.000259 187.096466,201.162628 187.731415,197.092804 
	C180.160263,197.875671 176.436890,201.838760 176.152725,208.885117 
	C179.112686,208.885117 182.068771,208.885117 185.898987,208.837906 
M198.259125,201.223007 
	C195.861511,199.579971 193.463898,197.936935 190.321228,195.783325 
	C190.321228,201.070618 190.321228,204.765335 190.321228,208.680130 
	C194.060577,208.680130 197.446396,208.680130 201.834946,208.680130 
	C200.648270,206.037369 199.690018,203.903305 198.259125,201.223007 
M224.974228,317.629852 
	C224.974228,322.589508 224.974228,327.549164 224.974228,332.508820 
	C225.479568,332.778992 225.984909,333.049194 226.490250,333.319366 
	C227.296738,332.195099 228.727020,331.109192 228.799026,329.939697 
	C229.074356,325.467438 229.129318,320.953217 228.818970,316.485779 
	C228.673325,314.389526 227.509308,312.364044 226.806824,310.306488 
	C226.195953,312.429871 225.585098,314.553284 224.974228,317.629852 
z"/>
<path fill="#EA5A2C" opacity="1.000000" stroke="none" 
	d="
M217.556732,168.565033 
	C225.470520,170.099472 232.972351,171.520660 241.086334,173.057831 
	C239.313538,180.052826 243.417740,182.295425 249.797546,183.210052 
	C249.797546,175.975784 249.797546,168.805450 249.797546,161.336990 
	C252.838272,161.336990 255.225754,161.336990 258.174561,161.336990 
	C258.174561,165.219955 258.305756,169.006454 258.129639,172.778625 
	C258.006927,175.406525 258.813141,176.672516 261.578339,177.101669 
	C266.332550,177.839539 270.983551,179.402985 275.750580,179.857834 
	C281.820770,180.437012 285.667847,183.828918 289.414001,188.948380 
	C284.094757,189.992065 279.067566,190.685684 274.224915,192.039520 
	C271.365967,192.838776 268.233704,194.117447 266.196472,196.153320 
	C255.978622,206.364273 246.081711,216.896378 235.576645,227.831284 
	C217.562866,205.935715 199.796631,184.341034 181.088181,161.601105 
	C194.097412,164.072830 205.621094,166.262299 217.556732,168.565033 
z"/>
<path fill="#FCCC6C" opacity="1.000000" stroke="none" 
	d="
M327.955688,199.977081 
	C319.496246,210.271332 311.355896,220.370773 302.953796,230.247543 
	C301.665863,231.761551 299.175354,233.071869 297.233276,233.082687 
	C278.773132,233.185440 260.311279,232.988281 241.849960,232.869583 
	C241.256485,232.865768 240.663528,232.778290 239.148956,232.654495 
	C244.992630,226.565521 250.231079,221.099472 255.478912,215.642456 
	C258.013947,213.006363 261.089691,210.721191 263.018066,207.700897 
	C270.180176,196.483475 282.202362,196.489655 293.182465,194.195053 
	C306.667542,191.376968 320.220795,188.883453 333.755463,186.306839 
	C335.291168,186.014496 336.897095,186.091110 339.425934,185.939270 
	C335.260986,191.043213 331.725067,195.376328 327.955688,199.977081 
z"/>
<path fill="#5FA2A7" opacity="1.000000" stroke="none" 
	d="
M144.436707,206.406433 
	C154.118378,194.543289 163.564651,182.945648 172.990097,171.373566 
	C175.993637,174.464417 178.822769,177.375793 182.116394,180.765152 
	C180.108994,183.269958 177.700943,186.357895 175.205368,189.373398 
	C166.932968,199.369232 158.672546,209.375595 150.318176,219.302734 
	C146.360229,224.005798 141.562943,228.299225 145.175034,236.044357 
	C137.058197,235.479065 129.876572,234.978897 121.678490,234.407944 
	C129.613235,224.636612 136.907288,215.654266 144.436707,206.406433 
z"/>
<path fill="#DF562A" opacity="1.000000" stroke="none" 
	d="
M170.419861,292.372620 
	C170.156509,284.890289 170.156509,277.780548 170.156509,269.527527 
	C176.306854,273.199982 183.148422,266.348999 188.471634,272.839508 
	C190.063782,271.902618 191.507996,270.675262 193.174133,270.144470 
	C197.830368,268.661041 202.225677,271.277191 202.641281,276.210938 
	C203.096909,281.619843 202.745010,287.096771 202.745010,292.777283 
	C200.535522,292.777283 198.770645,292.777283 196.363876,292.777283 
	C196.363876,288.494202 196.666855,284.335938 196.220764,280.259705 
	C196.031647,278.531647 194.270050,276.975647 193.223145,275.341461 
	C192.053223,277.019806 190.110382,278.595947 189.872208,280.397430 
	C189.356430,284.298889 189.713333,288.315704 189.713333,292.758698 
	C187.544144,292.861908 185.813660,292.944244 183.188171,293.069183 
	C183.188171,288.658966 183.528854,284.544067 183.034988,280.531860 
	C182.810150,278.705231 180.935379,277.081757 179.808960,275.366119 
	C178.653015,277.074463 176.737167,278.683380 176.497910,280.511688 
	C175.985962,284.423767 176.341110,288.449341 176.341110,292.995911 
	C174.183838,292.900330 172.433533,292.822784 170.419861,292.372620 
z"/>
<path fill="#E2572B" opacity="1.000000" stroke="none" 
	d="
M238.017548,269.014862 
	C238.082733,270.964722 238.147858,272.432922 238.227753,274.233643 
	C241.483154,274.233643 244.516388,274.233643 248.012054,274.233643 
	C248.012054,270.246277 248.012054,266.487305 248.012054,262.325134 
	C250.312469,262.325134 252.168427,262.325134 254.297760,262.325134 
	C254.297760,272.484253 254.297760,282.544952 254.297760,292.770508 
	C252.227173,292.770508 250.465424,292.770508 248.278915,292.770508 
	C248.278915,288.607361 248.278915,284.675629 248.278915,280.383362 
	C244.806198,280.383362 241.750992,280.383362 238.117172,280.383362 
	C238.117172,284.342285 238.117172,288.406281 238.117172,292.732483 
	C235.817017,292.732483 234.072311,292.732483 232.018478,292.732483 
	C232.018478,282.610229 232.018478,272.549652 232.018478,262.201416 
	C233.846680,262.201416 235.604477,262.201416 238.017487,262.201416 
	C238.017487,264.324493 238.017487,266.428833 238.017548,269.014862 
z"/>
<path fill="#E2572B" opacity="1.000000" stroke="none" 
	d="
M119.372421,292.978516 
	C118.544312,292.306702 117.816483,291.668304 117.811493,291.024353 
	C117.738121,281.562286 117.761002,272.099457 117.761002,262.153503 
	C119.746552,262.065216 121.480629,261.988129 123.810486,261.884552 
	C123.810486,266.029083 123.810486,269.916779 123.810486,274.183685 
	C127.413124,274.183685 130.446381,274.183685 134.095673,274.183685 
	C134.095673,270.198792 134.095673,266.299164 134.095673,262.164001 
	C136.462143,262.164001 138.223831,262.164001 140.296173,262.164001 
	C140.296173,272.407867 140.296173,282.470734 140.296173,292.775238 
	C138.271774,292.775238 136.512970,292.775238 134.328568,292.775238 
	C134.328568,288.666565 134.328568,284.731201 134.328568,280.408203 
	C130.855988,280.408203 127.796051,280.408203 124.017036,280.408203 
	C124.017036,283.164001 123.801346,286.105865 124.073067,289.002045 
	C124.393913,292.421783 122.951187,293.504517 119.372421,292.978516 
z"/>
<path fill="#5DA0A4" opacity="1.000000" stroke="none" 
	d="
M342.547729,194.498535 
	C343.676666,193.540207 344.556305,192.814468 345.775330,191.808701 
	C356.994690,205.679733 368.098999,219.408463 379.715332,233.770279 
	C374.225006,234.205414 369.697693,234.564224 364.385773,234.985214 
	C366.717285,229.323135 363.206329,226.267838 360.340485,222.903137 
	C353.354645,214.701309 346.413300,206.461563 338.345306,196.926788 
	C339.732239,196.156433 341.015320,195.443771 342.547729,194.498535 
z"/>
<path fill="#E8592C" opacity="1.000000" stroke="none" 
	d="
M308.532227,270.394531 
	C315.190369,269.567322 318.245178,271.182220 320.038879,276.086609 
	C322.132538,281.811188 320.692200,288.918945 316.651184,291.627106 
	C315.339813,292.505951 313.592316,293.148956 312.036438,293.165588 
	C308.250519,293.206116 304.459991,292.816315 300.295715,292.578339 
	C300.295715,282.728394 300.295715,272.661774 300.295715,262.260895 
	C302.019501,262.260895 303.745270,262.260895 306.138306,262.260895 
	C306.138306,264.553680 306.009552,266.837097 306.229828,269.086334 
	C306.284149,269.641022 307.474091,270.084503 308.532227,270.394531 
M312.587189,276.246704 
	C307.868378,274.805573 305.041595,277.648407 306.386017,283.106537 
	C306.831940,284.916992 309.054016,286.289978 310.464081,287.862946 
	C311.672821,286.285614 313.527832,284.850952 313.916138,283.092407 
	C314.339630,281.174683 313.403778,278.956787 312.587189,276.246704 
z"/>
<path fill="#E5582B" opacity="1.000000" stroke="none" 
	d="
M278.445618,278.645935 
	C278.451691,283.551605 278.451691,288.021362 278.451691,292.512634 
	C273.574890,292.768982 269.139282,293.191193 264.705017,293.177856 
	C260.874756,293.166260 258.368347,291.079437 258.163361,287.102661 
	C257.965088,283.256470 260.011230,280.754181 263.755371,279.976288 
	C266.316193,279.444244 268.966248,279.341492 272.351196,278.959320 
	C271.199615,275.500122 269.533081,274.723053 266.407013,275.813873 
	C264.136841,276.606049 261.677948,276.857513 258.806091,277.453186 
	C260.376343,271.535767 263.331085,269.666809 269.184753,269.909088 
	C274.853363,270.143738 277.508087,272.524872 278.445618,278.645935 
M271.158020,283.243866 
	C270.169891,283.221558 269.071106,282.913666 268.219574,283.243744 
	C266.939240,283.740051 265.637421,284.516388 264.766022,285.534302 
	C264.492676,285.853607 265.467072,288.052368 266.058899,288.141693 
	C267.550995,288.366913 269.451294,288.322876 270.607971,287.535095 
	C271.472992,286.945953 271.434509,285.030212 271.158020,283.243866 
z"/>
<path fill="#E4572B" opacity="1.000000" stroke="none" 
	d="
M224.209076,272.697968 
	C225.653961,276.238464 226.845474,279.491669 228.348175,283.594543 
	C222.450317,283.594543 218.019501,283.594543 212.463638,283.594543 
	C214.675156,288.033508 217.280060,288.659332 220.768082,287.278320 
	C223.754242,286.095978 223.748856,286.082367 226.029327,288.883301 
	C222.258957,293.757935 215.388367,294.832794 210.770798,291.270355 
	C206.331757,287.845642 205.141708,278.663391 208.524384,273.937256 
	C211.957275,269.140961 218.286591,268.514801 224.209076,272.697968 
M217.382828,279.146454 
	C218.458725,279.033783 219.534622,278.921112 220.610535,278.808441 
	C219.685898,276.869293 218.317383,275.374786 216.947571,275.373596 
	C215.591339,275.372437 214.233841,276.877747 212.876892,277.722290 
	C213.030640,278.086548 213.184402,278.450836 213.338150,278.815094 
	C214.419266,278.925659 215.500381,279.036255 217.382828,279.146454 
z"/>
<path fill="#E6582C" opacity="1.000000" stroke="none" 
	d="
M349.750183,288.791901 
	C349.592560,282.496429 349.592560,276.577911 349.592560,270.365601 
	C351.342285,270.365601 353.082947,270.365601 355.365875,270.365601 
	C355.365875,274.656738 355.004730,278.831482 355.532166,282.890717 
	C355.764069,284.675629 357.804840,286.225494 359.024323,287.882080 
	C360.229736,286.197601 362.241608,284.617737 362.476440,282.807343 
	C363.001373,278.760712 362.640594,274.599152 362.640594,270.281921 
	C364.859314,270.281921 366.482910,270.281921 368.538422,270.281921 
	C368.538422,277.704376 368.538422,285.052795 368.538422,292.585938 
	C364.282745,292.776001 359.979828,293.418396 355.795898,292.964172 
	C353.720306,292.738831 351.863556,290.497894 349.750183,288.791901 
z"/>
<path fill="#E4572B" opacity="1.000000" stroke="none" 
	d="
M166.005035,281.918091 
	C165.099854,288.809875 162.686005,292.161591 158.022934,293.020599 
	C153.665512,293.823303 149.704910,293.078979 146.892303,289.238464 
	C144.122849,285.456848 144.070648,277.962646 146.729721,274.080566 
	C149.195206,270.481079 154.223755,268.740631 158.756927,270.237274 
	C164.102982,272.002350 166.011246,276.180756 166.005035,281.918091 
M159.470673,279.216309 
	C157.874222,277.911346 156.277756,276.606354 154.681305,275.301392 
	C153.485153,276.899475 151.574188,278.364899 151.247757,280.124359 
	C150.643906,283.379211 150.825577,287.455872 155.205139,287.740265 
	C159.431046,288.014648 159.542206,284.135101 159.728256,280.956970 
	C159.747238,280.632843 159.672516,280.303284 159.470673,279.216309 
z"/>
<path fill="#E5582B" opacity="1.000000" stroke="none" 
	d="
M344.342957,276.130615 
	C344.691193,278.971802 345.183228,281.466766 344.985931,283.905975 
	C344.546417,289.339508 340.872742,292.853394 335.699432,293.240082 
	C329.811737,293.680176 325.661713,290.697662 324.317505,285.060150 
	C322.816895,278.766785 325.306274,272.725586 330.255096,270.650757 
	C335.743378,268.349762 340.673309,270.159119 344.342957,276.130615 
M338.782990,283.909149 
	C338.718933,282.117676 339.253571,279.953705 338.432129,278.633423 
	C337.502960,277.140045 335.356567,276.403992 333.739502,275.338623 
	C332.576965,277.318298 330.466125,279.316467 330.504211,281.272797 
	C330.546875,283.465820 332.533783,285.621002 333.674713,287.792664 
	C335.296234,286.752106 336.917725,285.711517 338.782990,283.909149 
z"/>
<path fill="#58969B" opacity="1.000000" stroke="none" 
	d="
M163.137299,332.987305 
	C162.182861,331.564758 161.298599,330.169373 161.241470,328.740967 
	C161.055374,324.088074 161.416367,319.406250 161.095932,314.768036 
	C160.826004,310.860901 162.401062,309.642090 165.993118,310.140533 
	C166.809677,310.253845 167.655258,310.165131 168.487381,310.157928 
	C171.958344,310.127930 175.891708,310.451141 176.623077,314.291595 
	C177.168610,317.156250 175.599106,320.423676 174.971481,323.511749 
	C174.394913,323.464874 173.818344,323.418030 173.241776,323.371155 
	C174.595093,326.337952 175.948410,329.304749 177.502335,332.711304 
	C169.669968,334.139954 173.108734,322.112396 166.006805,323.478729 
	C165.161072,326.805206 164.373657,329.902283 163.137299,332.987305 
M168.460098,313.777496 
	C163.271362,313.600311 165.625107,317.171844 165.791885,320.316742 
	C168.482498,319.841461 171.789490,319.359070 172.910812,317.533875 
	C174.297974,315.275940 171.902588,313.829254 168.460098,313.777496 
z"/>
<path fill="#5B9CA1" opacity="1.000000" stroke="none" 
	d="
M237.737106,310.422241 
	C241.815781,310.262848 245.483932,310.108856 249.132492,310.309998 
	C250.087479,310.362640 250.981644,311.518494 251.903732,312.167694 
	C251.028763,312.697205 250.182175,313.617218 249.273514,313.683228 
	C246.506195,313.884399 243.714920,313.756195 240.686401,313.756195 
	C240.686401,316.014160 240.686401,317.622955 240.686401,319.973724 
	C242.504059,319.973724 244.279465,319.838593 246.017303,320.035339 
	C246.792007,320.123047 247.491089,320.878662 248.224487,321.331146 
	C247.474045,321.951477 246.793869,322.956726 245.958084,323.109222 
	C244.383743,323.396454 242.719711,323.192108 240.769836,323.192108 
	C240.769836,325.513855 240.769836,327.251068 240.769836,328.810364 
	C244.168930,331.519653 249.296478,327.456818 252.838745,332.623596 
	C246.927200,332.623596 242.066620,332.623596 236.276657,332.623596 
	C236.622787,325.298950 236.971024,317.929596 237.737106,310.422241 
z"/>
<path fill="#E6582C" opacity="1.000000" stroke="none" 
	d="
M376.173950,293.005859 
	C375.005432,292.155487 373.662415,291.325775 373.639130,290.460571 
	C373.461700,283.867615 373.541931,277.267731 373.541931,270.716827 
	C378.368073,270.716827 382.723633,270.716827 387.604462,270.716827 
	C387.377899,272.341583 387.138794,274.056091 386.849457,276.131012 
	C380.544006,275.721680 379.260071,279.363617 379.889893,284.609985 
	C380.105408,286.404877 380.334320,288.387268 379.782715,290.022797 
	C379.373199,291.237030 377.713501,292.029663 376.173950,293.005859 
z"/>
<path fill="#59989C" opacity="1.000000" stroke="none" 
	d="
M295.315125,317.103546 
	C303.115234,314.964050 306.120087,317.149475 306.168243,324.594055 
	C306.185364,327.244110 306.170959,329.894409 306.170959,332.603271 
	C303.296875,332.816193 300.740021,333.045166 298.178284,333.185303 
	C295.023926,333.357941 292.419250,332.485626 292.081299,328.860962 
	C291.757477,325.388123 293.940033,323.708374 297.053192,323.120361 
	C298.639191,322.820740 300.283569,322.830444 301.901581,322.700348 
	C302.033203,322.225189 302.164856,321.750000 302.296478,321.274841 
	C300.960419,320.815735 299.604645,319.940735 298.293304,320.002930 
	C296.659180,320.080383 295.061646,320.930756 293.448334,321.447357 
	C293.162292,321.078461 292.876221,320.709564 292.590179,320.340668 
	C293.382050,319.316284 294.173889,318.291931 295.315125,317.103546 
z"/>
<path fill="#59989C" opacity="1.000000" stroke="none" 
	d="
M215.768066,332.981873 
	C214.236420,332.943359 213.108429,332.794464 212.024490,332.950867 
	C207.003540,333.675476 204.101395,332.276337 204.077026,328.744354 
	C204.044785,324.074188 207.297180,323.093231 211.147202,322.963898 
	C212.077011,322.932648 213.001129,322.732513 214.203262,322.573669 
	C212.158264,316.083862 207.271973,323.900818 204.797394,320.096069 
	C206.447418,316.275513 209.644501,315.660858 213.300201,316.431458 
	C216.676041,317.143036 218.341476,319.331757 218.183731,322.896240 
	C218.066330,325.549164 218.299728,328.224152 218.063248,330.861206 
	C217.994492,331.627930 216.845718,332.297821 215.768066,332.981873 
z"/>
<path fill="#E8592C" opacity="1.000000" stroke="none" 
	d="
M296.370026,270.557190 
	C296.518341,272.451202 296.387787,274.063660 296.243103,275.850677 
	C283.705811,276.943146 291.466248,286.979462 288.321533,292.696136 
	C286.920624,292.696136 285.203278,292.696136 283.173279,292.696136 
	C283.173279,285.257141 283.173279,277.899567 283.173279,270.275635 
	C287.634338,270.275635 291.862732,270.275635 296.370026,270.557190 
z"/>
<path fill="#57969A" opacity="1.000000" stroke="none" 
	d="
M341.021301,328.847961 
	C339.663208,330.440491 337.984741,332.985443 336.437531,332.908020 
	C333.993164,332.785645 330.094604,331.375641 329.572449,329.666901 
	C328.564423,326.368317 328.628235,322.117920 329.956726,318.987396 
	C330.642639,317.371094 335.159393,316.338043 337.653809,316.760895 
	C342.081787,317.511536 342.295044,321.678467 342.728088,325.843628 
	C339.115204,325.843628 335.847778,325.843628 332.302917,325.843628 
	C332.451019,329.694031 334.463104,330.290405 337.244385,329.712982 
	C338.440002,329.464752 339.589417,328.993866 341.021301,328.847961 
z"/>
<path fill="#59989C" opacity="1.000000" stroke="none" 
	d="
M189.577927,326.075867 
	C189.003983,326.982239 188.622101,328.605469 188.736618,328.641266 
	C190.216171,329.103943 191.756104,329.432648 193.301971,329.606201 
	C194.618774,329.753998 195.963013,329.657410 197.295105,329.668945 
	C196.162415,330.746765 194.927979,332.817535 193.916382,332.713837 
	C191.031433,332.418182 186.495819,331.963654 185.781021,330.249268 
	C184.423904,326.994324 184.378265,322.490479 185.594925,319.166840 
	C186.184937,317.555054 191.078873,316.364197 193.634583,316.887177 
	C197.857697,317.751373 198.385834,321.725861 198.057129,326.054932 
	C195.233398,326.054932 192.617050,326.054932 189.577927,326.075867 
z"/>
<path fill="#5DA0A4" opacity="1.000000" stroke="none" 
	d="
M187.198807,217.030182 
	C187.198715,219.261581 187.198715,221.063614 187.198715,223.240234 
	C183.376663,223.240234 179.862762,223.240234 176.015717,223.240234 
	C176.015717,219.222702 176.015717,215.335983 176.015717,211.136322 
	C179.633850,211.136322 183.177170,211.136322 187.198898,211.136322 
	C187.198898,213.042664 187.198898,214.821716 187.198807,217.030182 
z"/>
<path fill="#5DA0A4" opacity="1.000000" stroke="none" 
	d="
M201.422501,221.388550 
	C197.861069,222.631897 194.320190,223.449417 190.263809,224.385956 
	C190.263809,219.104065 190.263809,215.190582 190.263809,211.051682 
	C193.894455,211.051682 197.343216,211.051682 201.443054,211.051682 
	C201.443054,214.426132 201.443054,217.694412 201.422501,221.388550 
z"/>
<path fill="#59989C" opacity="1.000000" stroke="none" 
	d="
M266.470764,329.624817 
	C265.650848,328.328369 264.672455,326.874847 263.319305,326.293335 
	C260.629333,325.137329 257.346283,324.136108 258.281128,320.681824 
	C258.772552,318.865906 261.472839,316.869446 263.499115,316.423248 
	C266.831146,315.689484 270.007782,316.794739 271.262238,321.559113 
	C267.908630,320.871094 265.130646,320.301208 262.352661,319.731293 
	C262.197968,320.357910 262.043274,320.984558 261.888550,321.611206 
	C263.640869,322.324371 265.699921,322.677704 267.066986,323.842865 
	C268.731750,325.261810 269.814270,327.363892 271.148651,329.170471 
	C269.283600,330.490540 267.567169,332.551086 265.519623,332.962097 
	C262.210724,333.626282 258.801331,333.014221 257.837036,327.954529 
	C260.866974,328.650421 263.504913,329.256256 266.470764,329.624817 
z"/>
<path fill="#5B9CA1" opacity="1.000000" stroke="none" 
	d="
M314.491455,326.667297 
	C314.017273,323.512085 313.544800,320.791473 312.856934,316.830627 
	C312.809540,316.896820 313.629059,315.761414 314.438202,314.618683 
	C315.027618,313.786316 315.603424,312.944275 316.185272,312.106567 
	C316.867554,312.981750 317.462280,313.949005 318.257568,314.705353 
	C319.002655,315.413971 320.249481,315.724121 320.739868,316.533936 
	C321.198822,317.291901 321.405670,318.995880 320.950226,319.389984 
	C316.921997,322.875854 316.952057,326.612701 321.179230,330.045166 
	C321.605225,330.391052 321.705872,331.137543 321.956146,331.695251 
	C316.847656,334.101746 315.141663,332.995605 314.491455,326.667297 
z"/>
<path fill="#57969A" opacity="1.000000" stroke="none" 
	d="
M284.455078,333.013000 
	C280.161438,333.132324 278.949463,331.008209 278.915222,327.365356 
	C278.886780,324.338776 278.251190,321.317902 276.776276,318.352661 
	C276.810272,318.027130 276.797089,317.430634 276.885132,317.415314 
	C279.798584,316.907745 277.563385,310.810577 281.798004,312.483521 
	C283.654907,313.217102 284.687347,316.037781 285.683014,317.363373 
	C284.728302,319.951569 283.353760,322.424591 283.037506,325.026276 
	C282.860504,326.482452 284.639374,328.090179 285.147522,329.748932 
	C285.442200,330.710815 284.964661,331.909241 284.455078,333.013000 
z"/>
<path fill="#5DA0A4" opacity="1.000000" stroke="none" 
	d="
M185.461914,208.861511 
	C182.068771,208.885117 179.112686,208.885117 176.152725,208.885117 
	C176.436890,201.838760 180.160263,197.875671 187.731415,197.092804 
	C187.096466,201.162628 186.497726,205.000259 185.461914,208.861511 
z"/>
<path fill="#5B9CA1" opacity="1.000000" stroke="none" 
	d="
M198.495453,201.496124 
	C199.690018,203.903305 200.648270,206.037369 201.834946,208.680130 
	C197.446396,208.680130 194.060577,208.680130 190.321228,208.680130 
	C190.321228,204.765335 190.321228,201.070618 190.321228,195.783325 
	C193.463898,197.936935 195.861511,199.579971 198.495453,201.496124 
z"/>
<path fill="#5B9CA1" opacity="1.000000" stroke="none" 
	d="
M224.974228,317.153259 
	C225.585098,314.553284 226.195953,312.429871 226.806824,310.306488 
	C227.509308,312.364044 228.673325,314.389526 228.818970,316.485779 
	C229.129318,320.953217 229.074356,325.467438 228.799026,329.939697 
	C228.727020,331.109192 227.296738,332.195099 226.490250,333.319366 
	C225.984909,333.049194 225.479568,332.778992 224.974228,332.508820 
	C224.974228,327.549164 224.974228,322.589508 224.974228,317.153259 
z"/>
<path fill="#59989C" opacity="1.000000" stroke="none" 
	d="
M334.994415,218.198807 
	C337.285431,218.198807 339.576447,218.198807 342.184387,218.198807 
	C342.184387,220.501648 342.184387,222.727234 342.184387,225.570099 
	C339.978516,225.570099 337.905121,225.570099 335.415466,225.058746 
	C334.997589,222.431213 334.996002,220.315002 334.994415,218.198807 
z"/>
<path fill="#5B9CA1" opacity="1.000000" stroke="none" 
	d="
M334.566193,218.101212 
	C334.996002,220.315002 334.997589,222.431213 335.002594,224.935226 
	C332.881348,225.389801 330.756683,225.456558 328.296326,224.918304 
	C327.976074,222.269424 327.991547,220.225540 328.007019,218.181671 
	C330.050690,218.122314 332.094330,218.062973 334.566193,218.101212 
z"/>
<path fill="#5DA0A4" opacity="1.000000" stroke="none" 
	d="
M334.971191,216.642715 
	C332.551178,216.642715 330.131165,216.642715 327.221436,216.642715 
	C327.978363,212.482529 330.164490,210.296875 334.614014,210.481812 
	C334.982300,212.867340 334.976746,214.755020 334.971191,216.642715 
z"/>
<path fill="#57969A" opacity="1.000000" stroke="none" 
	d="
M335.381226,216.717133 
	C334.976746,214.755020 334.982300,212.867340 334.987061,210.573761 
	C339.602875,210.793472 340.447784,211.532074 342.101929,216.791565 
	C339.898163,216.791565 337.844727,216.791565 335.381226,216.717133 
z"/>
<path fill="#59989C" opacity="1.000000" stroke="none" 
	d="
M327.685364,218.245483 
	C327.991547,220.225540 327.976074,222.269424 327.943024,224.754303 
	C327.738220,222.899963 327.550995,220.604630 327.685364,218.245483 
z"/>
<path fill="#0F0603" opacity="1.000000" stroke="none" 
	d="
M312.823853,276.558228 
	C313.403778,278.956787 314.339630,281.174683 313.916138,283.092407 
	C313.527832,284.850952 311.672821,286.285614 310.464050,287.862946 
	C309.054016,286.289978 306.831940,284.916992 306.386017,283.106537 
	C305.041595,277.648407 307.868378,274.805573 312.823853,276.558228 
z"/>
<path fill="#1B0A05" opacity="1.000000" stroke="none" 
	d="
M271.478210,283.474518 
	C271.434509,285.030212 271.472992,286.945953 270.607971,287.535095 
	C269.451294,288.322876 267.550995,288.366913 266.058899,288.141693 
	C265.467072,288.052368 264.492676,285.853607 264.766022,285.534302 
	C265.637421,284.516388 266.939240,283.740051 268.219574,283.243744 
	C269.071106,282.913666 270.169891,283.221558 271.478210,283.474518 
z"/>
<path fill="#1B0A05" opacity="1.000000" stroke="none" 
	d="
M216.982162,279.146637 
	C215.500381,279.036255 214.419266,278.925659 213.338150,278.815094 
	C213.184402,278.450836 213.030640,278.086548 212.876892,277.722290 
	C214.233841,276.877747 215.591339,275.372437 216.947571,275.373596 
	C218.317383,275.374786 219.685898,276.869293 220.610535,278.808441 
	C219.534622,278.921112 218.458725,279.033783 216.982162,279.146637 
z"/>
<path fill="#0F0603" opacity="1.000000" stroke="none" 
	d="
M159.555969,279.596252 
	C159.672516,280.303284 159.747238,280.632843 159.728256,280.956970 
	C159.542206,284.135101 159.431046,288.014648 155.205139,287.740265 
	C150.825577,287.455872 150.643906,283.379211 151.247757,280.124359 
	C151.574188,278.364899 153.485153,276.899475 154.681305,275.301392 
	C156.277756,276.606354 157.874222,277.911346 159.555969,279.596252 
z"/>
<path fill="#0F0603" opacity="1.000000" stroke="none" 
	d="
M338.661133,284.290039 
	C336.917725,285.711517 335.296234,286.752106 333.674713,287.792664 
	C332.533783,285.621002 330.546875,283.465820 330.504211,281.272797 
	C330.466125,279.316467 332.576965,277.318298 333.739502,275.338623 
	C335.356567,276.403992 337.502960,277.140045 338.432129,278.633423 
	C339.253571,279.953705 338.718933,282.117676 338.661133,284.290039 
z"/>
<path fill="#000000" opacity="1.000000" stroke="none" 
	d="
M168.902863,313.783142 
	C171.902588,313.829254 174.297974,315.275940 172.910812,317.533875 
	C171.789490,319.359070 168.482498,319.841461 165.791885,320.316742 
	C165.625107,317.171844 163.271362,313.600311 168.902863,313.783142 
z"/>
</svg>